<svg width="18" height="18" viewBox="0 0 18 18" fill="none" xmlns="http://www.w3.org/2000/svg">
<path d="M10.5258 0H10.9094C11.0088 0.0418359 11.0904 0.114258 11.1635 0.192305C11.7067 0.738281 12.2534 1.28074 12.7944 1.82848C12.9839 2.02289 12.9783 2.36496 12.7853 2.5548C12.2182 3.12469 11.6504 3.69457 11.0809 4.26199C10.8949 4.44516 10.5736 4.4543 10.3771 4.28344C10.156 4.10484 10.1285 3.74414 10.3208 3.53461C10.5898 3.25863 10.8658 2.98898 11.1365 2.71441C10.4365 2.71336 9.73689 2.71441 9.03693 2.71371C8.11619 2.70668 7.19299 2.90742 6.36119 3.30363C5.24111 3.83273 4.294 4.71164 3.66506 5.77758C3.06389 6.78727 2.74783 7.96676 2.78053 9.14238C2.80549 10.1587 3.09588 11.1642 3.59861 12.0466C3.71463 12.2302 3.71287 12.4826 3.57822 12.6555C3.43303 12.8616 3.13103 12.9255 2.91166 12.805C2.78791 12.7427 2.70635 12.6264 2.64658 12.5054C2.30029 11.8811 2.04119 11.2078 1.88861 10.51C1.62213 9.30586 1.68049 8.03461 2.04225 6.85652C2.48416 5.40773 3.37889 4.09992 4.5756 3.17074C5.61342 2.35934 6.8801 1.84605 8.18967 1.70438C8.72685 1.64109 9.26896 1.66043 9.80861 1.65691C10.2512 1.65516 10.6935 1.66148 11.1358 1.65867C10.8644 1.37883 10.5817 1.10953 10.3121 0.82793C10.0825 0.569531 10.1995 0.115664 10.5258 0Z" fill="#00021D"/>
<path d="M14.4942 5.24706C14.7027 4.98163 15.1587 5.01398 15.3334 5.3005C15.9082 6.28523 16.2535 7.40566 16.3164 8.54507C16.4008 10.0055 16.0225 11.4838 15.2673 12.7346C14.5846 13.8709 13.5932 14.8236 12.419 15.4413C11.7271 15.8091 10.9733 16.0573 10.1996 16.1792C9.45425 16.3069 8.69663 16.2626 7.94464 16.2703C7.60187 16.2703 7.25909 16.27 6.91632 16.2703C7.17894 16.5392 7.44788 16.8019 7.7112 17.0694C7.87397 17.2332 7.90772 17.5064 7.78749 17.704C7.63667 17.9842 7.21937 18.0492 6.98698 17.8334C6.43433 17.2856 5.88765 16.7319 5.3364 16.1831C5.17011 16.0474 5.07237 15.8217 5.1339 15.609C5.16062 15.4807 5.25167 15.3826 5.34413 15.2958C5.88835 14.7509 6.43151 14.2045 6.97749 13.6614C7.18562 13.4596 7.55616 13.4838 7.73792 13.7088C7.90386 13.9032 7.89894 14.2161 7.72351 14.4028C7.45667 14.6763 7.18315 14.9435 6.91491 15.2153C7.68062 15.2142 8.44667 15.2184 9.21237 15.2132C10.7413 15.1808 12.2464 14.5512 13.339 13.4807C14.354 12.5012 15.0279 11.1751 15.2153 9.77659C15.4009 8.44558 15.1242 7.06112 14.4594 5.89499C14.3297 5.70093 14.336 5.4232 14.4942 5.24706Z" fill="#00021D"/>
<path d="M8.50363 5.73083C8.53633 5.43657 8.84887 5.21333 9.1375 5.2861C9.36215 5.33251 9.54004 5.53852 9.55129 5.76774C9.55621 5.95442 9.55094 6.1411 9.5534 6.32778C9.90883 6.32954 10.2643 6.32637 10.6197 6.32884C10.8967 6.32919 11.14 6.5788 11.1347 6.85548C11.1396 7.13216 10.8964 7.38141 10.6193 7.38176C9.9032 7.38528 9.18672 7.38001 8.47058 7.38458C8.19953 7.39301 7.96644 7.63981 7.97101 7.91051C7.96715 8.18087 8.19918 8.42626 8.46953 8.43575C8.84605 8.44137 9.22258 8.43364 9.59945 8.43927C10.0259 8.44841 10.4421 8.64352 10.7262 8.96098C11.0113 9.27423 11.1614 9.70524 11.1298 10.1278C11.0996 10.6376 10.8021 11.121 10.3613 11.3787C10.1187 11.5253 9.83605 11.5977 9.5534 11.6023C9.54988 11.7977 9.55867 11.9932 9.54883 12.188C9.52211 12.4829 9.21449 12.7115 8.9248 12.6454C8.69664 12.6035 8.51312 12.3965 8.50047 12.1648C8.49484 11.977 8.50012 11.7897 8.49836 11.6019C8.1373 11.5995 7.7759 11.6044 7.41484 11.5998C7.14414 11.5903 6.91176 11.3446 6.91633 11.0739C6.91211 10.8028 7.14554 10.556 7.4173 10.5483C8.13344 10.5441 8.84992 10.5493 9.56605 10.5458C9.84308 10.5465 10.085 10.2945 10.08 10.0188C10.0846 9.74251 9.84168 9.4936 9.565 9.4929C9.20113 9.48973 8.83726 9.49466 8.4734 9.49079C8.0364 9.48516 7.60679 9.28829 7.31781 8.96028C7.02004 8.63087 6.87484 8.17137 6.92793 7.73087C6.97504 7.28368 7.22851 6.86673 7.59765 6.61184C7.85887 6.42657 8.17879 6.33094 8.49836 6.32743C8.50187 6.12844 8.49133 5.92911 8.50363 5.73083Z" fill="#00021D"/>
</svg>
