<svg width="32" height="32" viewBox="0 0 32 32" fill="none" xmlns="http://www.w3.org/2000/svg">
<path d="M26.3228 12.3145L25.49 13.2051C25.7059 13.9261 25.8408 14.6856 25.8793 15.4683H26.9473C26.8972 14.3694 26.6813 13.3092 26.3228 12.3145Z" fill="#5A8CFF"/>
<path d="M16.5283 5.04224V6.1102C18.8565 6.23358 20.9725 7.16659 22.6068 8.63166L23.3623 7.87599C21.5392 6.21815 19.1532 5.16561 16.5283 5.04224Z" fill="#7259F6"/>
<path d="M8.63008 9.38732C8.86906 9.12515 9.1196 8.8707 9.38557 8.63166C11.0199 7.16659 13.136 6.23358 15.4641 6.1102V5.04224C12.8392 5.16561 10.461 6.21815 8.63008 7.87599C8.36797 8.11502 8.11358 8.36563 7.8746 8.63166C6.21717 10.4553 5.16489 12.8418 5.04154 15.4673C5.02997 15.6408 5.02612 15.8221 5.02612 15.9994C5.02612 16.1767 5.02612 16.358 5.04154 16.5314C5.16489 19.1531 6.21717 21.5358 7.8746 23.3671C8.11358 23.6293 8.36411 23.8838 8.63008 24.1228C10.4571 25.7806 12.8392 26.8331 15.4641 26.9565V25.8886C13.136 25.7653 11.0199 24.8322 9.38557 23.3671C9.12346 23.128 8.86906 22.8775 8.63008 22.6114C7.16537 20.9806 6.23258 18.8601 6.10924 16.5314C6.09768 16.3541 6.09382 16.1767 6.09382 15.9994C6.09382 15.8221 6.09382 15.6446 6.10924 15.4673C6.23258 13.1386 7.16537 11.0182 8.63008 9.38732Z" fill="white"/>
<path d="M22.6068 23.3679C20.9725 24.833 18.8565 25.7661 16.5283 25.8894V26.9573C19.1532 26.834 21.5352 25.7815 23.3623 24.1236L22.6068 23.3679Z" fill="#AFFF4A"/>
<path d="M25.884 16.5317C25.7606 18.8604 24.8276 20.9808 23.3625 22.6118L24.1182 23.3673C25.776 21.5399 26.8285 19.1573 26.952 16.5317H25.884Z" fill="#00C1F5"/>
<path d="M6.57566 26.1741L5.0647 27.6854C7.80524 30.2492 11.4478 31.8647 15.4602 31.9996V29.8637C12.0374 29.7326 8.93076 28.3562 6.57566 26.1741Z" fill="#7259F6"/>
<path d="M2.1354 16.5318H0C0.131053 20.5414 1.74995 24.1848 4.31318 26.9299L5.8203 25.4224C3.63865 23.0668 2.2626 19.9555 2.1354 16.5318Z" fill="#5A8CFF"/>
<path d="M5.0647 4.31423L6.57566 5.82556C8.93076 3.63953 12.0374 2.26315 15.4602 2.13591V0C11.4478 0.13494 7.80524 1.75037 5.0647 4.31423Z" fill="#AFFF4A"/>
<path d="M0 15.4681H2.1354C2.2626 12.0445 3.63865 8.93315 5.8203 6.57747L4.31318 5.07001C1.74995 7.81122 0.131053 11.4546 0 15.4681Z" fill="#00C1F5"/>
<path d="M31.9926 15.468C31.9078 12.8887 31.2063 10.4636 30.0422 8.33154L28.4965 9.98938C29.3022 11.6588 29.78 13.5132 29.8533 15.468C29.861 15.6453 29.8649 15.8226 29.8649 16.0001C29.8649 16.1774 29.861 16.3547 29.8533 16.532C29.7261 19.9557 28.3462 23.067 26.1684 25.4227C25.9294 25.681 25.6788 25.9316 25.4167 26.1746C23.0655 28.3567 19.9511 29.7369 16.5283 29.8642V32.0001C20.537 31.869 24.1795 30.2497 26.9239 27.682C27.1822 27.4391 27.4327 27.1885 27.6755 26.9301C30.2427 24.1851 31.8615 20.5417 31.9926 16.532C31.9964 16.3547 32.0002 16.1774 32.0002 16.0001C32.0002 15.8226 31.9964 15.6453 31.9926 15.468Z" fill="white"/>
<path d="M26.9239 4.31809C24.1872 1.74652 20.5409 0.131085 16.5283 0V2.13591C19.9511 2.26315 23.0617 3.64338 25.4129 5.82556C25.6133 6.01062 25.8099 6.20725 26.0027 6.40387L27.4596 4.84243C27.2862 4.66122 27.1089 4.48773 26.9239 4.31809Z" fill="white"/>
<path d="M31.0441 5.69097L15.9923 21.8183L9.43579 14.7975L10.993 13.3402L15.9884 18.6953L29.7143 3.99072C30.1923 4.53049 30.6356 5.10108 31.0403 5.69482L31.0441 5.69097Z" fill="white"/>
</svg>
