<svg width="18" height="18" viewBox="0 0 18 18" fill="none" xmlns="http://www.w3.org/2000/svg">
<g clip-path="url(#clip0_1736_18685)">
<path d="M8.41217 0.960465C9.81983 0.851832 11.2542 1.12605 12.5202 1.75148C12.6851 1.82179 12.8387 1.94343 12.8918 2.12097C12.9871 2.37726 12.8591 2.68804 12.613 2.80476C12.4383 2.89757 12.2238 2.87718 12.0551 2.78086C10.8102 2.14488 9.3649 1.92269 7.98397 2.13011C6.67651 2.32101 5.42951 2.89793 4.436 3.76875C3.40522 4.66418 2.65322 5.87285 2.30061 7.19156C1.94693 8.49586 1.98947 9.90351 2.41873 11.185C2.79279 12.3156 3.46674 13.3439 4.35127 14.1409C5.21014 14.9186 6.26764 15.4737 7.39475 15.7405C8.97186 16.1209 10.6805 15.9209 12.1261 15.1847C13.3752 14.5582 14.4228 13.5415 15.0897 12.3135C15.6723 11.2518 15.9627 10.0353 15.9367 8.82492C15.9205 8.63261 15.9961 8.43257 16.1525 8.3148C16.3445 8.15976 16.6394 8.15589 16.8356 8.30601C16.9653 8.40164 17.0536 8.55527 17.0603 8.71769C17.0989 10.0621 16.811 11.418 16.2014 12.6186C15.6178 13.7795 14.7484 14.7944 13.6923 15.551C12.6893 16.2738 11.5172 16.7593 10.2965 16.9562C8.60729 17.235 6.83049 16.9559 5.30998 16.1673C4.26725 15.6322 3.3458 14.8637 2.62791 13.9373C1.93182 13.0423 1.42803 11.9981 1.1633 10.8953C0.804356 9.40746 0.876778 7.81664 1.37775 6.36961C1.88049 4.90394 2.82127 3.59437 4.04295 2.64269C5.28959 1.665 6.83154 1.0705 8.41217 0.960465Z" fill="#00021D"/>
<path d="M16.1078 3.10042C16.3343 2.86523 16.7611 2.88738 16.9576 3.14894C17.1393 3.37218 17.1042 3.72691 16.889 3.91605C14.3528 6.40687 11.8174 8.89874 9.28086 11.3892C9.07695 11.6026 8.69902 11.6191 8.48949 11.4057C7.27765 10.2175 6.06652 9.02847 4.85539 7.83948C4.68769 7.67917 4.64269 7.41269 4.73972 7.20351C4.88984 6.84878 5.41261 6.7732 5.6682 7.05585C6.73695 8.10843 7.805 9.16171 8.87304 10.215C11.2844 7.84335 13.6958 5.47136 16.1078 3.10042Z" fill="#00021D"/>
</g>
<defs>
<clipPath id="clip0_1736_18685">
<rect width="18" height="18" fill="white"/>
</clipPath>
</defs>
</svg>
