<svg width="18" height="18" viewBox="0 0 18 18" fill="none" xmlns="http://www.w3.org/2000/svg">
<g clip-path="url(#clip0_1736_18653)">
<path d="M6.11578 1.29973C7.45313 0.696799 8.94973 0.458791 10.4087 0.604689C11.7281 0.734767 13.0152 1.18406 14.1279 1.90547C15.1608 2.56922 16.045 3.46254 16.6999 4.50141C17.5138 5.78285 17.9627 7.28824 18 8.80524V9.22113C17.9592 10.6017 17.5834 11.9725 16.8957 13.1716C16.213 14.3726 15.23 15.4009 14.0607 16.1371C12.8844 16.8841 11.5182 17.3275 10.1278 17.4182C9.38109 17.4646 8.62664 17.4354 7.89152 17.2891C6.0075 16.926 4.26937 15.8607 3.09445 14.3434C2.96016 14.1683 2.78578 13.9827 2.81496 13.7433C2.82516 13.4195 3.15879 13.1583 3.4759 13.2293C3.66047 13.2546 3.79898 13.3914 3.89777 13.5401C4.66734 14.5744 5.73574 15.3823 6.93844 15.8456C7.79379 16.1789 8.71594 16.3354 9.63316 16.3111C10.9902 16.3005 12.3416 15.9019 13.4852 15.1706C14.5775 14.4784 15.4793 13.4898 16.0689 12.3388C16.766 10.9849 17.023 9.40957 16.7934 7.90418C16.522 6.06656 15.5123 4.3541 14.0428 3.21961C12.979 2.39028 11.68 1.87137 10.3395 1.73039C8.99191 1.58168 7.6057 1.8225 6.38648 2.41453C5.12121 3.0252 4.03629 4.00535 3.30961 5.20875C2.82234 6.0082 2.49785 6.90363 2.34598 7.82684C2.55727 7.64508 2.71687 7.35328 3.01781 7.31742C3.31699 7.26785 3.6232 7.50375 3.64992 7.80574C3.67313 7.98434 3.60316 8.16645 3.47309 8.28949C3.01535 8.74688 2.55797 9.20461 2.10023 9.66235C2.0018 9.76324 1.86996 9.83285 1.72758 9.84199C1.52332 9.86449 1.32117 9.75235 1.21289 9.58149C0.846563 9.03305 0.481992 8.48356 0.114609 7.93582C0.0583594 7.85356 0.0200391 7.76074 0 7.66336V7.53856C0.0256641 7.20703 0.376523 6.9518 0.698906 7.04602C0.977695 7.10262 1.0909 7.38738 1.24383 7.59235C1.42172 6.54715 1.79473 5.535 2.34562 4.62902C3.22629 3.17145 4.55977 1.99195 6.11578 1.29973Z" fill="#00021D"/>
<path d="M8.71945 4.21629C8.71171 3.91641 8.98277 3.64711 9.28265 3.6566C9.58148 3.64887 9.84972 3.91957 9.84269 4.21769C9.8448 5.81168 9.84339 7.40531 9.84375 8.9993C10.884 9.78785 11.926 10.5739 12.966 11.3636C13.191 11.5239 13.2602 11.8589 13.1178 12.0955C12.9969 12.3166 12.7157 12.4267 12.4755 12.3557C12.3388 12.3173 12.234 12.2179 12.1222 12.1366C11.0644 11.3432 10.0065 10.549 8.94832 9.75621C8.78554 9.64336 8.71101 9.4398 8.71839 9.2468C8.71945 7.57019 8.71769 5.89324 8.71945 4.21629Z" fill="#00021D"/>
</g>
<defs>
<clipPath id="clip0_1736_18653">
<rect width="18" height="18" fill="white"/>
</clipPath>
</defs>
</svg>
