<svg width="18" height="18" viewBox="0 0 18 18" fill="none" xmlns="http://www.w3.org/2000/svg">
<path d="M7.82021 0H8.01005C8.73216 0.0418359 9.41595 0.470391 9.75591 1.11059C10.1015 1.11234 10.4471 1.10953 10.7927 1.11129C11.0553 1.10812 11.294 1.32961 11.3109 1.59152C11.3197 1.79262 11.3109 1.99441 11.3147 2.19551C12.1961 2.19691 13.0775 2.19551 13.9588 2.19621C14.162 2.19375 14.3565 2.32277 14.437 2.50875C14.502 2.64762 14.4806 2.80406 14.4837 2.95242C14.4841 5.39613 14.4827 7.83984 14.4844 10.2836C15.318 10.3978 16.109 10.7926 16.7007 11.3906C17.5068 12.1901 17.928 13.3562 17.8141 14.4861C17.7149 15.6301 17.0681 16.7059 16.1136 17.3415C15.531 17.7384 14.8377 17.9578 14.136 18H1.77615C1.51283 17.9761 1.28994 17.7412 1.2938 17.4748C1.29205 12.5638 1.29345 7.65281 1.2931 2.74184C1.27869 2.4627 1.5174 2.20113 1.7983 2.19691C2.68599 2.1948 3.57404 2.19691 4.46173 2.19586C4.4649 2.0018 4.45822 1.80738 4.46419 1.61332C4.47017 1.35387 4.69517 1.12324 4.95462 1.1127C5.31005 1.10742 5.66584 1.11375 6.02127 1.10988C6.36896 0.455273 7.07947 0.0189844 7.82021 0ZM6.97857 1.56164C6.88892 1.69383 6.8724 1.86398 6.76412 1.98422C6.66533 2.09777 6.51627 2.16352 6.36615 2.16422C6.08314 2.16809 5.80013 2.16422 5.51712 2.16598C5.51677 2.54531 5.51677 2.925 5.51712 3.30434C7.0981 3.30469 8.67873 3.30504 10.2594 3.30434C10.2597 2.925 10.259 2.54566 10.2601 2.16633C9.96791 2.16281 9.67611 2.16984 9.38431 2.16281C9.16423 2.15648 8.96455 1.99688 8.90232 1.78699C8.78525 1.42313 8.4597 1.13766 8.08283 1.07262C7.65955 0.988594 7.20005 1.1918 6.97857 1.56164ZM2.34779 3.25125C2.34779 7.81594 2.34744 12.3803 2.34779 16.945C5.3322 16.9453 8.31626 16.9457 11.3003 16.945C10.8883 16.5533 10.5592 16.0738 10.3508 15.5447C8.30642 15.5422 6.26209 15.545 4.21775 15.5433C4.04443 15.5447 3.87322 15.4568 3.77584 15.313C3.66334 15.1516 3.65209 14.928 3.75158 14.7579C3.84298 14.593 4.02826 14.4854 4.21669 14.4889C6.17701 14.4889 8.13697 14.4893 10.0973 14.4889C10.0642 14.1237 10.0815 13.7549 10.149 13.3945C8.17142 13.3945 6.19388 13.3945 4.21669 13.3945C4.01771 13.3988 3.82365 13.2792 3.73822 13.0999C3.66017 12.9473 3.66615 12.7575 3.75193 12.6098C3.84861 12.4323 4.05216 12.3293 4.25185 12.3398C6.33978 12.3398 8.42771 12.3398 10.5156 12.3398C10.7308 11.9303 11.0173 11.558 11.3611 11.2479C10.374 11.2472 9.38642 11.2482 8.39923 11.2475C8.2449 11.2482 8.09302 11.1772 7.99423 11.0591C7.84166 10.8844 7.829 10.6091 7.964 10.4207C8.06806 10.2674 8.25509 10.183 8.43861 10.1929C9.48205 10.1939 10.5255 10.1918 11.5689 10.1936C11.8544 10.1893 12.0945 10.4439 12.0984 10.7248C12.509 10.4959 12.9636 10.3493 13.4287 10.2836C13.4283 7.93934 13.4294 5.59512 13.4283 3.25055C12.7235 3.2516 12.0186 3.24949 11.314 3.2516C11.3126 3.45656 11.3176 3.66188 11.3119 3.86648C11.2996 4.13227 11.0599 4.35902 10.7944 4.35867C8.86013 4.36008 6.92619 4.35938 4.99189 4.35902C4.72435 4.36395 4.47826 4.13789 4.46455 3.87C4.45822 3.66363 4.4649 3.45691 4.46173 3.25055C3.7572 3.25125 3.05232 3.24984 2.34779 3.25125ZM13.4477 11.3488C12.5227 11.5119 11.7071 12.1721 11.3517 13.0409C11.0764 13.6944 11.0637 14.4534 11.3158 15.1165C11.5095 15.6336 11.8604 16.0896 12.3086 16.4116C12.8507 16.8071 13.5384 16.9952 14.2067 16.9337C14.784 16.8841 15.3429 16.6482 15.7831 16.2717C16.2219 15.8987 16.5432 15.3893 16.6866 14.8317C16.8501 14.207 16.79 13.5264 16.5168 12.9414C16.2591 12.3827 15.8133 11.9134 15.2684 11.6276C14.7161 11.3323 14.0629 11.2366 13.4477 11.3488Z" fill="#00021D"/>
<path d="M4.71028 6.10243C4.69375 5.78602 4.99293 5.49879 5.31004 5.55012C5.59375 5.58176 5.79766 5.86266 5.77094 6.14145C5.9643 6.21071 6.15801 6.2884 6.32817 6.40512C6.56583 6.5795 6.60239 6.95954 6.39883 7.17399C6.24274 7.35293 5.96219 7.4011 5.75477 7.28508C5.56352 7.17997 5.35364 7.09067 5.1318 7.09102C5.007 7.09489 4.86602 7.17786 4.85125 7.3118C4.84598 7.47071 4.98977 7.57899 5.11985 7.63981C5.4454 7.78536 5.80821 7.85215 6.10352 8.06098C6.41149 8.26875 6.64387 8.59254 6.71876 8.95887C6.79997 9.3579 6.70997 9.79454 6.4593 10.118C6.28633 10.3507 6.03883 10.5191 5.76954 10.6211C5.78711 10.8243 5.71153 11.0433 5.53504 11.1568C5.34731 11.288 5.07696 11.2739 4.90399 11.1238C4.76758 11.0134 4.70395 10.8352 4.71204 10.6629C4.4336 10.5919 4.165 10.4776 3.93086 10.3106C3.76598 10.1777 3.69532 9.94149 3.76317 9.7404C3.83524 9.4936 4.11086 9.33188 4.36188 9.38567C4.51305 9.40922 4.62485 9.52383 4.76547 9.57481C4.99715 9.66727 5.27946 9.71579 5.50657 9.58536C5.67708 9.49079 5.74317 9.25383 5.65071 9.08332C5.59692 8.98594 5.5027 8.91704 5.4025 8.87274C5.10403 8.74688 4.78165 8.67516 4.5025 8.50571C4.18012 8.31305 3.92348 7.99911 3.83454 7.63067C3.73645 7.24747 3.83454 6.82067 4.09223 6.52043C4.2536 6.32567 4.47508 6.19032 4.71028 6.10243Z" fill="#00021D"/>
<path d="M8.23754 5.92383C8.30187 5.90168 8.37078 5.89746 8.43898 5.89676C9.46976 5.89711 10.5009 5.89676 11.532 5.89676C11.7089 5.89043 11.8892 5.96988 11.9922 6.11613C12.1121 6.27785 12.1269 6.50848 12.0249 6.68285C11.9356 6.84563 11.7535 6.9525 11.5682 6.95145C10.5118 6.9518 9.45535 6.95145 8.3989 6.9518C8.16441 6.95637 7.94258 6.7841 7.88703 6.55664C7.81144 6.29613 7.97879 6.00047 8.23754 5.92383Z" fill="#00021D"/>
<path d="M8.23856 8.07152C8.30184 8.04902 8.36934 8.0455 8.43614 8.0455C9.47993 8.04691 10.5237 8.0455 11.5675 8.0462C11.7665 8.0448 11.9581 8.16714 12.0414 8.34714C12.1237 8.51308 12.1054 8.7205 11.9992 8.87167C11.8976 9.02249 11.7141 9.10792 11.5338 9.10089C10.5016 9.10089 9.46903 9.10054 8.43649 9.10089C8.28813 9.10687 8.13696 9.05519 8.03079 8.95007C7.87013 8.79925 7.82161 8.54261 7.92251 8.34538C7.98333 8.21531 8.10181 8.11476 8.23856 8.07152Z" fill="#00021D"/>
<path d="M14.6953 13.0043C14.8672 12.8348 15.1569 12.8085 15.3556 12.9456C15.551 13.0732 15.6386 13.3397 15.557 13.5587C15.5243 13.655 15.4593 13.7355 15.3862 13.8048C14.9108 14.2784 14.4376 14.7544 13.962 15.2279C13.8199 15.3752 13.5897 15.4339 13.3977 15.3584C13.3007 15.325 13.223 15.2557 13.153 15.184C12.9249 14.9537 12.6942 14.7266 12.4664 14.4963C12.2773 14.3019 12.2798 13.9637 12.4699 13.7714C12.6538 13.5728 12.992 13.5559 13.1938 13.737C13.326 13.86 13.4497 13.9925 13.5798 14.1187C13.9521 13.7479 14.323 13.3755 14.6953 13.0043Z" fill="#00021D"/>
</svg>
