<svg width="18" height="18" viewBox="0 0 18 18" fill="none" xmlns="http://www.w3.org/2000/svg">
<g clip-path="url(#clip0_1736_18671)">
<path d="M5.12121 0H5.31703C6.41215 0.0196875 7.49707 0.39375 8.36719 1.05961C9.17227 1.66922 9.79664 2.51578 10.1348 3.46781C10.5282 4.56328 10.5377 5.79199 10.1612 6.89344C9.83637 7.85461 9.22219 8.71418 8.42098 9.33609C7.605 9.97734 6.59215 10.3627 5.55645 10.4259C4.3882 10.5054 3.19711 10.1735 2.23945 9.49992C1.34438 8.87871 0.652148 7.97027 0.292852 6.94125C0.108984 6.42164 0.0151172 5.87215 0 5.3216V5.09519C0.0172266 4.57629 0.102305 4.05879 0.268945 3.56625C0.620859 2.50875 1.32398 1.57324 2.2391 0.937969C3.07863 0.347695 4.09605 0.0210937 5.12121 0ZM4.76367 1.08C3.70652 1.19109 2.70563 1.73285 2.02641 2.54918C1.41328 3.27551 1.06277 4.2177 1.05574 5.16867C1.03992 6.12633 1.3725 7.08433 1.97648 7.82754C2.6223 8.63437 3.5775 9.18738 4.6009 9.3368C5.47559 9.46898 6.39176 9.3143 7.17152 8.89559C8.08207 8.41359 8.80066 7.58215 9.14309 6.61043C9.45809 5.73047 9.46231 4.74328 9.15504 3.86051C8.82281 2.8916 8.11758 2.05875 7.21934 1.56797C6.47754 1.15629 5.60637 0.987187 4.76367 1.08Z" fill="#00021D"/>
<path d="M11.6283 2.07176C11.5692 1.74867 11.8772 1.43367 12.2006 1.47516C13.0064 1.59539 13.7661 1.99512 14.3286 2.58364C14.875 3.15387 15.2058 3.91571 15.2789 4.70004C15.3689 4.61215 15.4533 4.50985 15.576 4.4666C15.8182 4.365 16.1272 4.47996 16.2387 4.71938C16.3399 4.91274 16.3002 5.16481 16.149 5.3209C15.8193 5.65875 15.4867 5.99414 15.1552 6.33059C14.9699 6.54926 14.6095 6.57844 14.3993 6.37981C14.0537 6.04547 13.7145 5.70481 13.3703 5.36907C13.2258 5.23969 13.1576 5.03016 13.2079 4.84137C13.2694 4.56434 13.5809 4.38293 13.8526 4.46239C14.0056 4.49719 14.1124 4.61813 14.219 4.7236C14.1553 4.20821 13.9367 3.71004 13.5777 3.33211C13.1783 2.90637 12.6359 2.61949 12.0614 2.5193C11.841 2.48309 11.6557 2.29465 11.6283 2.07176Z" fill="#00021D"/>
<path d="M5.01252 2.16281C5.24596 2.05488 5.54549 2.15683 5.6717 2.37866C5.74377 2.49327 5.75045 2.63214 5.74729 2.76363C5.9649 2.8357 6.17971 2.92429 6.37307 3.04839C6.59666 3.20343 6.66135 3.53847 6.50842 3.76417C6.3685 3.98495 6.05631 4.06968 5.82533 3.94452C5.60209 3.82183 5.35705 3.71636 5.0976 3.71812C4.92322 3.71952 4.7267 3.85241 4.72986 4.04156C4.739 4.2089 4.87436 4.33792 5.01463 4.41105C5.35459 4.57347 5.73498 4.64238 6.05842 4.84031C6.37764 5.03226 6.63604 5.33214 6.75416 5.68792C6.92186 6.18749 6.809 6.7732 6.46025 7.16976C6.27147 7.38913 6.01869 7.54699 5.74658 7.64226C5.75186 7.79343 5.74764 7.9562 5.65553 8.08417C5.50471 8.32253 5.15139 8.3932 4.92287 8.2255C4.74357 8.10984 4.67186 7.8873 4.69084 7.68234C4.38463 7.61238 4.08826 7.49179 3.82951 7.3132C3.64283 7.18101 3.56092 6.92156 3.64213 6.70675C3.72229 6.46452 3.99896 6.31265 4.24717 6.37136C4.40678 6.40406 4.52631 6.52675 4.67924 6.57843C4.95275 6.68671 5.28744 6.73699 5.55147 6.57738C5.77365 6.44624 5.84713 6.11788 5.69385 5.9087C5.57748 5.7389 5.37393 5.66999 5.18795 5.60706C4.91127 5.5037 4.62158 5.42214 4.37373 5.25585C4.05662 5.04949 3.80666 4.72991 3.71701 4.35902C3.62842 4.0173 3.68537 3.64183 3.871 3.34159C4.05416 3.04171 4.35826 2.82866 4.68979 2.72144C4.67045 2.49152 4.79385 2.25105 5.01252 2.16281Z" fill="#00021D"/>
<path d="M11.6901 8.1443C11.7949 8.03672 11.9422 7.97238 12.093 7.97625C13.887 7.97555 15.6814 7.97555 17.4754 7.97625C17.7416 7.97098 17.975 8.19492 18 8.45684V17.5145C17.9778 17.7645 17.7704 17.9733 17.5215 18H10.4326C10.1682 17.9789 9.94251 17.743 9.94603 17.4755C9.94427 15.037 9.94603 12.5982 9.94497 10.1598C9.93689 9.99809 9.99349 9.83461 10.1123 9.72246C10.6379 9.19617 11.1638 8.66988 11.6901 8.1443ZM10.999 10.3296C11.0014 12.535 10.999 14.74 11 16.945C12.9818 16.9457 14.9635 16.9453 16.9453 16.9453C16.9453 14.3068 16.9456 11.6687 16.9449 9.03059C15.3952 9.03023 13.8456 9.03059 12.2962 9.03059C11.8631 9.46301 11.4282 9.89367 10.999 10.3296Z" fill="#00021D"/>
<path d="M13.3383 10.3539C13.7443 10.3454 14.1507 10.3514 14.5571 10.3507C14.8064 10.3482 15.037 10.5434 15.0757 10.7898C15.1344 11.0851 14.8918 11.3924 14.5909 11.4033C14.1806 11.4061 13.7703 11.4054 13.3604 11.4036C13.0841 11.3945 12.8482 11.1382 12.8619 10.8622C12.8658 10.6049 13.0827 10.3757 13.3383 10.3539Z" fill="#00021D"/>
<path d="M4.19518 11.54C4.39346 11.4363 4.65221 11.4841 4.80619 11.6441C5.14862 11.9805 5.49104 12.317 5.8317 12.6552C5.99202 12.813 6.0335 13.076 5.92557 13.2739C5.81342 13.5025 5.51951 13.6139 5.28256 13.5239C5.14862 13.481 5.05721 13.3703 4.95948 13.2764C5.02416 13.8132 5.26147 14.33 5.64502 14.7136C6.04475 15.1182 6.57561 15.3872 7.13494 15.4846C7.42041 15.5359 7.6194 15.852 7.53854 16.1314C7.47912 16.3828 7.2151 16.5618 6.95916 16.5217C6.08448 16.3846 5.26252 15.9223 4.6951 15.242C4.23877 14.6953 3.96596 14.0059 3.89881 13.2982C3.80037 13.4005 3.69983 13.5148 3.55569 13.5489C3.29905 13.6297 2.9967 13.4782 2.91409 13.2209C2.84448 13.0338 2.89545 12.8109 3.03678 12.6707C3.33983 12.3641 3.64252 12.0565 3.94522 11.7492C4.02186 11.6722 4.09358 11.585 4.19518 11.54Z" fill="#00021D"/>
<path d="M12.6724 12.4682C13.4986 12.4478 14.3269 12.465 15.1541 12.4594C15.3861 12.4478 15.6171 12.6007 15.685 12.825C15.7739 13.0725 15.6368 13.3706 15.3946 13.4698C15.2743 13.5264 15.1386 13.5134 15.01 13.5141C14.2604 13.5137 13.5109 13.5141 12.7614 13.5141C12.5863 13.5151 12.4147 13.4213 12.3198 13.2743C12.2172 13.1203 12.2049 12.9125 12.2917 12.7487C12.3648 12.6021 12.5118 12.497 12.6724 12.4682Z" fill="#00021D"/>
<path d="M12.6717 14.5775C13.4986 14.5568 14.3275 14.5744 15.1551 14.5688C15.3861 14.5579 15.6157 14.7094 15.6842 14.9323C15.7742 15.1798 15.6382 15.4786 15.3963 15.5784C15.2761 15.6354 15.1411 15.6231 15.0124 15.6234C14.3086 15.6234 13.6051 15.6231 12.9013 15.6238C12.7655 15.6273 12.6218 15.628 12.5022 15.5542C12.2797 15.4347 12.1707 15.1411 12.2698 14.907C12.3335 14.7364 12.4934 14.6095 12.6717 14.5775Z" fill="#00021D"/>
</g>
<defs>
<clipPath id="clip0_1736_18671">
<rect width="18" height="18" fill="white"/>
</clipPath>
</defs>
</svg>
